<svg xmlns="http://www.w3.org/2000/svg" viewBox="0 0 720 520" width="720" height="520">
  <rect width="720" height="520" fill="#fff"/>
  <g stroke="#111" fill="none" stroke-linecap="round" stroke-linejoin="round">
    <!-- plate frame -->
    <path d="M12 14 L706 12 L708 508 L14 510 Z" stroke-width="1.2"/>

    <!-- long traces (thin) -->
    <line x1="14" y1="193" x2="706" y2="208" stroke-width="1"/>
    <line x1="22" y1="20" x2="700" y2="470" stroke-width="1"/>
    <line x1="95" y1="506" x2="700" y2="88" stroke-width="1"/>
    <line x1="14" y1="128" x2="490" y2="506" stroke-width="1"/>
    <line x1="14" y1="152" x2="590" y2="506" stroke-width="1"/>
    <line x1="228" y1="506" x2="706" y2="212" stroke-width="1"/>
    <line x1="14" y1="240" x2="706" y2="440" stroke-width="1"/>

    <!-- ===== projection horizontale : triangle A B C ===== -->
    <path d="M357 67 L212 282 L367 282 Z" stroke-width="2.2"/>
    <line x1="212" y1="282" x2="321" y2="353" stroke-width="2.2"/>
    <line x1="321" y1="353" x2="367" y2="282" stroke-width="2.2"/>
    <!-- cotes prolongees -->
    <line x1="212" y1="282" x2="62" y2="506" stroke-width="2.2"/>
    <line x1="367" y1="282" x2="378" y2="506" stroke-width="2.2"/>
    <!-- vraie grandeur A^H S^H -->
    <path d="M357 67 L321 353" stroke-width="1.4" stroke-dasharray="14 6"/>

    <!-- ===== projection verticale : triangle A B C ===== -->
    <path d="M425 66 L427 282 L577 285 Z" stroke-width="2.2"/>
    <line x1="427" y1="282" x2="470" y2="354" stroke-width="2.2"/>
    <line x1="470" y1="354" x2="577" y2="285" stroke-width="2.2"/>
    <line x1="427" y1="282" x2="431" y2="506" stroke-width="2.2"/>
    <line x1="577" y1="285" x2="700" y2="455" stroke-width="2.2"/>
    <path d="M425 66 L470 354" stroke-width="1.4" stroke-dasharray="14 6"/>

    <!-- rappels horizontaux -->
    <g stroke-width="0.9" stroke-dasharray="5 4">
      <line x1="372" y1="282" x2="422" y2="282"/>
      <line x1="327" y1="354" x2="464" y2="354"/>
      <line x1="255" y1="398" x2="505" y2="398"/>
    </g>
  </g>

  <g font-family="Georgia, serif" font-size="15" fill="#111">
    <text x="646" y="40" font-size="17">E 70</text>

    <text x="342" y="56">A<tspan dy="-5" font-size="10">H</tspan></text>
    <text x="418" y="56">A<tspan dy="-5" font-size="10">V</tspan></text>
    <text x="188" y="284">B<tspan dy="-5" font-size="10">H</tspan></text>
    <text x="370" y="276">C<tspan dy="-5" font-size="10">H</tspan></text>
    <text x="404" y="274">B<tspan dy="-5" font-size="10">V</tspan></text>
    <text x="582" y="290">C<tspan dy="-5" font-size="10">V</tspan></text>
    <text x="312" y="374">S<tspan dy="-5" font-size="10">H</tspan></text>
    <text x="472" y="372">S<tspan dy="-5" font-size="10">V</tspan></text>
    <text x="244" y="200">X<tspan dy="-5" font-size="10">H</tspan></text>
    <text x="406" y="198">X<tspan dy="-5" font-size="10">V</tspan></text>
    <text x="364" y="222">Y<tspan dy="-5" font-size="10">H</tspan></text>

    <text x="56" y="38">n<tspan dy="-5" font-size="10">H</tspan></text>
    <text x="652" y="94">n<tspan dy="-5" font-size="10">V</tspan></text>
    <text x="158" y="462">e<tspan dy="-5" font-size="10">H</tspan></text>
    <text x="82" y="488">a<tspan dy="-5" font-size="10">H</tspan></text>
    <text x="220" y="492">g<tspan dy="-5" font-size="10">H</tspan></text>
    <text x="364" y="484">b<tspan dy="-5" font-size="10">H</tspan></text>
    <text x="430" y="492">a<tspan dy="-5" font-size="10">V</tspan></text>
    <text x="472" y="490">c<tspan dy="-5" font-size="10">H</tspan></text>
    <text x="574" y="482">m<tspan dy="-5" font-size="10">V</tspan></text>
    <text x="596" y="442">π<tspan dy="-5" font-size="10">H</tspan><tspan dy="5">p</tspan><tspan dy="-5" font-size="10">H</tspan><tspan dy="5">c</tspan><tspan dy="-5" font-size="10">V</tspan></text>
    <text x="682" y="442">b<tspan dy="-5" font-size="10">V</tspan></text>
  </g>
</svg>
