<svg xmlns="http://www.w3.org/2000/svg" viewBox="0 0 720 540" width="720" height="540">
  <rect width="720" height="540" fill="#fff"/>
  <g stroke="#111" fill="none" stroke-linecap="round" stroke-linejoin="round">
    <!-- plate frame -->
    <path d="M10 16 L700 8 L694 528 L30 522 Z" stroke-width="1.2"/>

    <!-- ===== projection horizontale : quadrilatere A D C B ===== -->
    <path d="M85 185 L238 109 L269 278 L113 357 Z" stroke-width="1.6"/>
    <g stroke-width="1.2">
      <line x1="85" y1="185" x2="269" y2="278"/>
      <line x1="238" y1="109" x2="113" y2="357"/>
    </g>
    <!-- dash-dot : A^H O' -->
    <path d="M85 185 L129 325" stroke-width="1.2" stroke-dasharray="14 4 2 4"/>
    <!-- marques d'egalite -->
    <g stroke-width="1.4">
      <line x1="205" y1="158" x2="216" y2="170"/>
      <line x1="149" y1="268" x2="160" y2="280"/>
      <line x1="155" y1="272" x2="166" y2="284"/>
      <line x1="105" y1="256" x2="118" y2="268"/>
      <line x1="118" y1="256" x2="105" y2="268"/>
    </g>

    <!-- ===== projection verticale ===== -->
    <path d="M535 111 L635 184 L548 349 L448 274 Z" stroke-width="2.2"/>
    <line x1="528" y1="14" x2="560" y2="526" stroke-width="1"/>
    <g stroke-width="1.4">
      <line x1="572" y1="176" x2="574" y2="192"/>
      <line x1="579" y1="176" x2="581" y2="192"/>
    </g>

    <!-- lignes de rappel horizontales -->
    <g stroke-width="1" stroke-dasharray="9 5">
      <line x1="245" y1="109" x2="530" y2="111"/>
      <line x1="92" y1="185" x2="630" y2="184"/>
      <line x1="186" y1="233" x2="538" y2="233"/>
      <line x1="276" y1="278" x2="443" y2="274"/>
      <line x1="120" y1="357" x2="543" y2="350"/>
    </g>
  </g>

  <g font-family="Georgia, serif" font-size="15" fill="#111">
    <text x="648" y="42" font-size="17">E 73</text>

    <text x="66" y="182">A<tspan dy="-5" font-size="10">H</tspan></text>
    <text x="232" y="102">D<tspan dy="-5" font-size="10">H</tspan></text>
    <text x="266" y="294">C<tspan dy="-5" font-size="10">H</tspan></text>
    <text x="96" y="368">B<tspan dy="-5" font-size="10">H</tspan></text>
    <text x="152" y="240">O<tspan dy="-5" font-size="10">H</tspan></text>
    <text x="130" y="332">O'</text>

    <text x="538" y="104">D<tspan dy="-5" font-size="10">V</tspan></text>
    <text x="640" y="188">A<tspan dy="-5" font-size="10">V</tspan></text>
    <text x="428" y="290">C<tspan dy="-5" font-size="10">V</tspan></text>
    <text x="550" y="364">B<tspan dy="-5" font-size="10">V</tspan></text>
    <text x="546" y="242">O<tspan dy="-5" font-size="10">V</tspan></text>
  </g>
</svg>
