<svg xmlns="http://www.w3.org/2000/svg" viewBox="0 0 720 1070" width="720" height="1070">
  <rect width="720" height="1070" fill="#fff"/>
  <g stroke="#111" fill="none" stroke-linecap="round" stroke-linejoin="round">
    <!-- axis Ch^V .. Ch^H (vertical) -->
    <line x1="184" y1="32" x2="166" y2="1058" stroke-width="1.8"/>
    <!-- pi^V -->
    <line x1="45" y1="139" x2="706" y2="150" stroke-width="1.6"/>

    <!-- the two obliques -->
    <line x1="35" y1="835" x2="706" y2="467" stroke-width="1.4"/>
    <line x1="245" y1="1055" x2="605" y2="265" stroke-width="1.4"/>
    <line x1="655" y1="888" x2="700" y2="1012" stroke-width="1.4"/>

    <!-- I^H : heavy horizontal to the crossing point -->
    <line x1="172" y1="603" x2="452" y2="605" stroke-width="2.6"/>

    <!-- rabattement horizontals (dashed) -->
    <g stroke-width="1.8" stroke-dasharray="14 8">
      <line x1="174" y1="546" x2="478" y2="541"/>
      <line x1="172" y1="631" x2="405" y2="633"/>
      <line x1="177" y1="926" x2="312" y2="930"/>
    </g>

    <!-- rappels (dashed verticals) -->
    <g stroke-width="1.8" stroke-dasharray="14 8">
      <line x1="408" y1="146" x2="404" y2="633"/>
      <line x1="456" y1="146" x2="452" y2="600"/>
      <line x1="481" y1="147" x2="478" y2="541"/>
    </g>

    <!-- arrow at the foot of the axis -->
    <path d="M182 990 L136 990 M144 985 L136 990 L144 995" stroke-width="1.5"/>
  </g>

  <g font-family="Georgia, serif" font-size="15" fill="#111">
    <text x="422" y="1000" font-size="19">( c )</text>

    <text x="196" y="126">A<tspan dy="-5" font-size="10">V</tspan></text>
    <text x="230" y="126">Ch<tspan dy="-5" font-size="10">V</tspan></text>
    <text x="668" y="136">π<tspan dy="-5" font-size="10">V</tspan></text>
    <text x="370" y="128">B<tspan dy="-5" font-size="10">V</tspan><tspan dy="9" font-size="10">R</tspan></text>
    <text x="442" y="126">I<tspan dy="-5" font-size="10">V</tspan><tspan dy="9" font-size="10">R</tspan></text>
    <text x="486" y="128">C<tspan dy="-5" font-size="10">V</tspan><tspan dy="9" font-size="10">R</tspan></text>

    <text x="190" y="262">D<tspan dy="-5" font-size="10">V</tspan></text>
    <text x="190" y="348">B<tspan dy="-5" font-size="10">V</tspan></text>
    <text x="140" y="406">I<tspan dy="-5" font-size="10">V</tspan></text>
    <text x="190" y="446">C<tspan dy="-5" font-size="10">V</tspan></text>

    <text x="182" y="526">C<tspan dy="-5" font-size="10">H</tspan></text>
    <text x="486" y="534">C<tspan dy="-5" font-size="10">H</tspan><tspan dy="9" font-size="10">R</tspan></text>
    <text x="142" y="592">I<tspan dy="-5" font-size="10">H</tspan></text>
    <text x="462" y="628">I<tspan dy="-5" font-size="10">H</tspan><tspan dy="9" font-size="10">R</tspan></text>
    <text x="180" y="658">B<tspan dy="-5" font-size="10">H</tspan></text>
    <text x="380" y="660">B<tspan dy="-5" font-size="10">H</tspan><tspan dy="9" font-size="10">R</tspan></text>
    <text x="178" y="782">A<tspan dy="-5" font-size="10">H</tspan></text>
    <text x="176" y="918">D<tspan dy="-5" font-size="10">H</tspan></text>
    <text x="314" y="936">D<tspan dy="-5" font-size="10">H</tspan><tspan dy="9" font-size="10">R</tspan></text>
    <text x="176" y="1030">Ch<tspan dy="-5" font-size="10">H</tspan></text>
  </g>
</svg>
