<svg xmlns="http://www.w3.org/2000/svg" viewBox="0 0 720 590" width="720" height="590">
  <rect width="720" height="590" fill="#fff"/>
  <g stroke="#111" fill="none" stroke-linecap="round" stroke-linejoin="round">

    <!-- nouvelle ligne de terre L'T' (V / H') -->
    <line x1="36" y1="236" x2="379" y2="11" stroke-width="1.4"/>

    <!-- triangle rabattu A^H' B^H C^H' -->
    <path d="M143 159 L350 145" stroke-width="1.4"/>
    <path d="M143 159 L271 220 L350 145" stroke-width="2.6"/>

    <!-- ligne de terre LT (V / H) -->
    <path d="M21 392 L143 394 L400 396" stroke-width="1.4"/>

    <!-- triangle des projections horizontales -->
    <path d="M143 394 L202 514 L302 488 Z" stroke-width="1.3"/>

    <!-- lignes de rappel -->
    <g stroke-width="1.3" stroke-dasharray="9 6">
      <line x1="143" y1="163" x2="143" y2="391"/>
      <line x1="201" y1="116" x2="202" y2="511"/>
      <line x1="302" y1="66" x2="302" y2="486"/>
      <line x1="204" y1="116" x2="270" y2="216"/>
      <line x1="304" y1="66" x2="348" y2="141"/>
    </g>

    <!-- petite epure auxiliaire (bas droite) -->
    <line x1="350" y1="528" x2="712" y2="529" stroke-width="1.5"/>
    <line x1="468" y1="451" x2="469" y2="590" stroke-width="1.5"/>
    <line x1="462" y1="577" x2="476" y2="577" stroke-width="1.5"/>
  </g>

  <g font-family="Georgia, serif" font-size="14" fill="#111">
    <text x="33" y="220" transform="rotate(-33 33 220)">L'T'V</text>
    <text x="63" y="232" transform="rotate(-33 63 232)">H'</text>

    <text x="129" y="145">A<tspan dy="-5" font-size="10">V</tspan></text>
    <text x="147" y="144">A<tspan dy="-5" font-size="10">H'</tspan></text>
    <text x="190" y="113">B<tspan dy="-5" font-size="10">V</tspan></text>
    <text x="289" y="56">C<tspan dy="-5" font-size="10">V</tspan></text>
    <text x="358" y="140">C<tspan dy="-5" font-size="10">H'</tspan></text>
    <text x="263" y="240">B<tspan dy="-5" font-size="10">H</tspan></text>

    <text x="24" y="390">LT V</text>
    <text x="45" y="410">H</text>
    <text x="120" y="388">A<tspan dy="-5" font-size="10">H</tspan></text>
    <text x="200" y="531">B<tspan dy="-5" font-size="10">H</tspan></text>
    <text x="304" y="499">C<tspan dy="-5" font-size="10">H</tspan></text>

    <text x="86" y="567" font-size="17">( c )</text>

    <text x="444" y="521">A<tspan dy="-5" font-size="10">V</tspan></text>
    <text x="444" y="576">C<tspan dy="-5" font-size="10">V</tspan></text>
    <text x="637" y="523">LT. V</text>
    <text x="659" y="545">H</text>
  </g>
</svg>
