<svg xmlns="http://www.w3.org/2000/svg" viewBox="0 0 720 1260" width="720" height="1260"><rect width="720" height="1260" fill="#fff"/><g transform="translate(720 1260) rotate(180)">
  <rect width="720" height="1260" fill="#fff"/>
  <g stroke="#111" fill="none" stroke-linecap="round" stroke-linejoin="round">
    <!-- cadre de la planche (le scan est renverse : cf. notes) -->
    <path d="M18 16 L692 58 L688 1215 L28 1248 Z" stroke-width="1.2"/>

    <!-- faisceau de droites concourantes en N(343,398) -->
    <line x1="153" y1="20" x2="700" y2="1112" stroke-width="1"/>
    <line x1="193" y1="18" x2="677" y2="1240" stroke-width="1"/>
    <line x1="290" y1="18" x2="461" y2="1240" stroke-width="1"/>
    <line x1="347" y1="18" x2="335" y2="1240" stroke-width="1"/>
    <line x1="380" y1="18" x2="261" y2="1240" stroke-width="1"/>
    <line x1="500" y1="18" x2="22" y2="1182" stroke-width="1"/>
    <line x1="597" y1="20" x2="22" y2="882" stroke-width="1"/>
    <line x1="22" y1="715" x2="690" y2="58" stroke-width="1"/>
    <line x1="20" y1="400" x2="700" y2="390" stroke-width="1"/>

    <!-- droite passant par R'V' -->
    <line x1="20" y1="204" x2="704" y2="374" stroke-width="1"/>

    <!-- faisceau issu du point de gauche L(23,763) -->
    <line x1="23" y1="763" x2="700" y2="578" stroke-width="1"/>
    <line x1="23" y1="763" x2="700" y2="700" stroke-width="1"/>
    <line x1="23" y1="763" x2="700" y2="748" stroke-width="1"/>

    <!-- faisceau issu de A^V (353,1017) -->
    <line x1="353" y1="1017" x2="667" y2="920" stroke-width="1"/>
    <line x1="353" y1="1017" x2="700" y2="1000" stroke-width="1"/>
    <line x1="353" y1="1017" x2="33" y2="1213" stroke-width="1"/>
    <line x1="353" y1="1017" x2="480" y2="1240" stroke-width="1"/>
    <line x1="353" y1="1017" x2="560" y2="1240" stroke-width="1"/>

    <!-- ===== figure principale (traits forts) ===== -->
    <path d="M350 438 L504 562 L390 752 L223 628 Z" stroke-width="2.2"/>
    <path d="M350 438 L329 237" stroke-width="2.2"/>
    <path d="M313 867 L353 1017" stroke-width="2.2"/>

    <!-- rabattements (traits forts, long tirets) -->
    <g stroke-width="2.2" stroke-dasharray="14 6">
      <line x1="150" y1="168" x2="329" y2="240"/>
      <line x1="157" y1="176" x2="161" y2="970"/>
      <line x1="157" y1="345" x2="329" y2="240"/>
      <line x1="163" y1="970" x2="170" y2="1127"/>
      <line x1="161" y1="970" x2="313" y2="867"/>
      <line x1="170" y1="1127" x2="353" y2="1017"/>
    </g>
    <g stroke-width="1.6">
      <path d="M150 157 L144 168 M150 157 L157 167"/>
      <path d="M329 237 L322 246 M329 237 L334 248"/>
    </g>

    <!-- constructions fines en tirets -->
    <g stroke-width="0.9" stroke-dasharray="9 5">
      <line x1="330" y1="430" x2="330" y2="760"/>
      <line x1="352" y1="440" x2="350" y2="1010"/>
      <line x1="380" y1="440" x2="380" y2="760"/>
      <line x1="350" y1="438" x2="504" y2="500"/>
      <line x1="390" y1="752" x2="545" y2="690"/>
      <line x1="504" y1="562" x2="490" y2="440"/>
    </g>
  </g>

  <g font-family="Georgia, serif" font-size="15" fill="#111" text-anchor="middle">
    <text x="623" y="1157" font-size="19" transform="rotate(180 623 1157)">E 88</text>
    <text x="673" y="1227" font-size="15" transform="rotate(180 673 1227)">60</text>

    <text x="120" y="163" transform="rotate(180 120 163)">C<tspan dy="-5" font-size="10">H</tspan></text>
    <text x="487" y="172" transform="rotate(180 487 172)">C<tspan dy="-5" font-size="10">H</tspan></text>
    <text x="150" y="343" transform="rotate(180 150 343)">D<tspan dy="-5" font-size="10">H</tspan></text>
    <text x="300" y="272" transform="rotate(180 300 272)">B<tspan dy="-5" font-size="10">H</tspan></text>
    <text x="425" y="303" transform="rotate(180 425 303)">R'V'</text>
    <text x="478" y="402" transform="rotate(180 478 402)">B<tspan dy="-5" font-size="10">V'</tspan></text>
    <text x="30" y="398" transform="rotate(180 30 398)">P<tspan dy="-5" font-size="10">H</tspan></text>
    <text x="95" y="400" transform="rotate(180 95 400)">f<tspan dy="-5" font-size="10">H</tspan></text>

    <text x="345" y="428" transform="rotate(180 345 428)">A<tspan dy="-5" font-size="10">H</tspan></text>
    <text x="345" y="458" transform="rotate(180 345 458)">B<tspan dy="-5" font-size="10">H</tspan></text>
    <text x="478" y="487" transform="rotate(180 478 487)">K<tspan dy="-5" font-size="10">H</tspan></text>
    <text x="467" y="513" transform="rotate(180 467 513)">C<tspan dy="-5" font-size="10">V</tspan></text>
    <text x="588" y="522" transform="rotate(180 588 522)">h<tspan dy="-5" font-size="10">H'</tspan></text>
    <text x="518" y="560" transform="rotate(180 518 560)">A<tspan dy="-5" font-size="10">V</tspan></text>
    <text x="495" y="574" transform="rotate(180 495 574)">C<tspan dy="-5" font-size="10">H'</tspan></text>
    <text x="612" y="612" transform="rotate(180 612 612)">h<tspan dy="-5" font-size="10">H</tspan></text>

    <text x="35" y="650" transform="rotate(180 35 650)">B<tspan dy="-5" font-size="10">H</tspan></text>
    <text x="72" y="672" transform="rotate(180 72 672)">C<tspan dy="-5" font-size="10">V</tspan></text>
    <text x="78" y="715" transform="rotate(180 78 715)">C<tspan dy="-5" font-size="10">H</tspan></text>
    <text x="140" y="630" transform="rotate(180 140 630)">H</text>
    <text x="172" y="642" transform="rotate(180 172 642)">V'</text>
    <text x="185" y="675" transform="rotate(180 185 675)">LT'</text>
    <text x="233" y="632" transform="rotate(180 233 632)">C<tspan dy="-5" font-size="10">H</tspan></text>
    <text x="545" y="690" transform="rotate(180 545 690)">D<tspan dy="-5" font-size="10">V'</tspan></text>
    <text x="372" y="762" transform="rotate(180 372 762)">D<tspan dy="-5" font-size="10">H</tspan></text>

    <text x="546" y="752" transform="rotate(180 546 752)">H</text>
    <text x="606" y="770" transform="rotate(180 606 770)">LT V</text>
    <text x="648" y="762" transform="rotate(180 648 762)">h<tspan dy="-5" font-size="10">V</tspan></text>

    <text x="45" y="792" transform="rotate(180 45 792)">P<tspan dy="-5" font-size="10">V</tspan></text>
    <text x="75" y="802" transform="rotate(180 75 802)">C<tspan dy="-5" font-size="10">V</tspan></text>
    <text x="307" y="880" transform="rotate(180 307 880)">B<tspan dy="-5" font-size="10">V</tspan></text>
    <text x="493" y="930" transform="rotate(180 493 930)" font-size="13">K<tspan dy="-4" font-size="9">V</tspan><tspan dy="4"> L</tspan><tspan dy="-4" font-size="9">V</tspan></text>
    <text x="130" y="980" transform="rotate(180 130 980)">C<tspan dy="-5" font-size="10">V</tspan></text>
    <text x="73" y="1103" transform="rotate(180 73 1103)">f<tspan dy="-5" font-size="10">V</tspan></text>
    <text x="343" y="1050" transform="rotate(180 343 1050)">A<tspan dy="-5" font-size="10">V</tspan></text>
    <text x="145" y="1150" transform="rotate(180 145 1150)">D<tspan dy="-5" font-size="10">V</tspan></text>
    <text x="617" y="985" transform="rotate(180 617 985)">H'</text>
    <text x="608" y="999" transform="rotate(180 608 999)">V'</text>
    <text x="593" y="1043" transform="rotate(180 593 1043)" font-size="13">(a,AB)<tspan dy="-4" font-size="9">V'</tspan></text>
    <text x="640" y="1067" transform="rotate(180 640 1067)">P<tspan dy="-5" font-size="10">H</tspan></text>
    <text x="527" y="1153" transform="rotate(180 527 1153)">P<tspan dy="-5" font-size="10">V</tspan></text>
  </g>
</g></svg>