<svg xmlns="http://www.w3.org/2000/svg" viewBox="0 0 510 720" width="510" height="720"><rect width="510" height="720" fill="#fff"/><g transform="translate(0 720) rotate(-90)">
  <rect width="720" height="510" fill="#fff"/>
  <g stroke="#111" fill="none" stroke-linecap="round" stroke-linejoin="round">

    <!-- ligne de terre -->
    <line x1="31" y1="183" x2="690" y2="211" stroke-width="1.8"/>
    <!-- ligne quasi verticale (H | V) -->
    <line x1="302" y1="10" x2="248" y2="489" stroke-width="1.8"/>
    <!-- les deux obliques paralleles -->
    <line x1="48" y1="488" x2="640" y2="110" stroke-width="1.8"/>
    <line x1="202" y1="490" x2="693" y2="170" stroke-width="1.8"/>

    <!-- fragment de ligne de terre en bas a droite (V | H) -->
    <line x1="525" y1="495" x2="718" y2="499" stroke-width="1.8"/>
    <line x1="687" y1="489" x2="687" y2="501" stroke-width="1.6"/>

    <!-- lignes de rappel -->
    <g stroke-width="1.4" stroke-dasharray="9 6">
      <line x1="339" y1="195" x2="336" y2="304"/>
      <line x1="400" y1="198" x2="397" y2="362"/>
      <line x1="558" y1="204" x2="557" y2="257"/>
    </g>

    <!-- reperes de points sur la ligne de terre -->
    <g stroke-width="1.6">
      <line x1="93" y1="179" x2="93" y2="191"/>
      <line x1="156" y1="182" x2="156" y2="194"/>
      <line x1="218" y1="185" x2="218" y2="197"/>
      <line x1="338" y1="190" x2="338" y2="202"/>
      <line x1="400" y1="193" x2="400" y2="205"/>
      <line x1="558" y1="199" x2="558" y2="211"/>
    </g>
  </g>

  <g font-family="Georgia, serif" font-size="15" fill="#111">
    <text x="666" y="45" font-size="17" transform="rotate(90 666 45)">e(ii)</text>

    <text x="271" y="44" transform="rotate(90 271 44)">H</text>
    <text x="305" y="42" transform="rotate(90 305 42)">V</text>

    <text x="96" y="196" transform="rotate(90 96 196)">B<tspan dy="-5" font-size="10">H</tspan></text>
    <text x="154" y="203" transform="rotate(90 154 203)">N<tspan dy="-5" font-size="10">H</tspan></text>
    <text x="217" y="209" transform="rotate(90 217 209)">A<tspan dy="-5" font-size="10">H</tspan></text>
    <text x="285" y="205" transform="rotate(90 285 205)">M<tspan dy="-5" font-size="10">H</tspan></text>

    <text x="344" y="209" transform="rotate(90 344 209)">N<tspan dy="-5" font-size="10">V</tspan></text>
    <text x="409" y="208" transform="rotate(90 409 208)">B<tspan dy="-5" font-size="10">V</tspan></text>

    <text x="504" y="213" transform="rotate(90 504 213)">M<tspan dy="-5" font-size="10">V</tspan></text>
    <text x="504" y="245" transform="rotate(90 504 245)">M<tspan dy="-5" font-size="10">H'</tspan></text>

    <text x="564" y="210" transform="rotate(90 564 210)">A<tspan dy="-5" font-size="10">V</tspan></text>
    <text x="561" y="268" transform="rotate(90 561 268)">A<tspan dy="-5" font-size="10">H'</tspan></text>

    <text x="330" y="313" transform="rotate(90 330 313)">N<tspan dy="-5" font-size="10">H'</tspan></text>
    <text x="392" y="378" transform="rotate(90 392 378)">B<tspan dy="-5" font-size="10">H'</tspan></text>

    <text x="561" y="477" transform="rotate(90 561 477)">V</text>
    <text x="559" y="504" transform="rotate(90 559 504)">H</text>
  </g>
</g></svg>