<svg xmlns="http://www.w3.org/2000/svg" viewBox="0 0 720 1130" width="720" height="1130">
  <rect width="720" height="1130" fill="#fff"/>
  <g stroke="#111" fill="none" stroke-linecap="round" stroke-linejoin="round">

    <!-- cadre de l'epure (trace a main levee) -->
    <path d="M27 34 Q 300 12 697 58 L 703 1108 Q 360 1128 33 1112 Z" stroke-width="1.2"/>

    <!-- ligne de terre (V au-dessus, H au-dessous) -->
    <line x1="27" y1="386" x2="700" y2="412" stroke-width="2.2"/>
    <!-- m^V : courbe surbaissee au-dessus de la LT -->
    <path d="M23 377 Q 350 348 693 379" stroke-width="1"/>
    <!-- horizontale du plan horizontal, flechee a droite -->
    <line x1="27" y1="668" x2="702" y2="684" stroke-width="1"/>
    <path d="M690 678 L702 684 L690 690" stroke-width="1"/>
    <!-- m^H : horizontale basse -->
    <line x1="27" y1="815" x2="706" y2="803" stroke-width="1.6"/>
    <!-- verticale du cadre interieur -->
    <line x1="274" y1="16" x2="300" y2="1120" stroke-width="1"/>

    <!-- faisceau a 135 deg (montant vers la droite) -->
    <g stroke-width="1">
      <line x1="27" y1="722" x2="700" y2="134"/>
      <line x1="30" y1="1038" x2="700" y2="358"/>
      <line x1="30" y1="1113" x2="700" y2="420"/>
      <line x1="33" y1="1120" x2="540" y2="675"/>
    </g>
    <!-- faisceau a 45 deg (descendant vers la droite) -->
    <g stroke-width="1">
      <line x1="19" y1="276" x2="700" y2="957"/>
      <line x1="22" y1="341" x2="700" y2="1019"/>
      <line x1="27" y1="390" x2="700" y2="1097"/>
    </g>

    <!-- m^V : oblique raide -->
    <line x1="698" y1="64" x2="330" y2="1100" stroke-width="1"/>
    <!-- prolongement mince de la droite S^V B^V -->
    <line x1="510" y1="30" x2="180" y2="960" stroke-width="1"/>

    <!-- ===== projection verticale : triangle A^V S^V B^V + M^V ===== -->
    <path d="M211 392 L478 120 L381 395" stroke-width="2.4"/>
    <path d="M478 120 L306 391" stroke-width="2.4"/>
    <path d="M211 392 L381 395" stroke-width="2.4"/>

    <!-- ===== projection horizontale ===== -->
    <path d="M205 458 L485 637 L457 731 L310 693 Z" stroke-width="2.4"/>
    <!-- A^H M^H C^H alignes -->
    <path d="M310 693 L394 895" stroke-width="2.4"/>
    <path d="M310 693 L279 908 L394 895 L457 731" stroke-width="2.4"/>

    <!-- rabattement en trait interrompu fort -->
    <path d="M310 693 L485 640" stroke-width="2.2" stroke-dasharray="16 8"/>
    <path d="M207 462 L390 672" stroke-width="1.2" stroke-dasharray="10 6"/>

    <!-- lignes de rappel -->
    <g stroke-width="1.2" stroke-dasharray="9 6">
      <line x1="208" y1="392" x2="206" y2="456"/>
      <line x1="283" y1="400" x2="287" y2="690"/>
      <line x1="392" y1="400" x2="392" y2="668"/>
      <line x1="412" y1="400" x2="412" y2="680"/>
      <line x1="432" y1="400" x2="432" y2="645"/>
      <line x1="470" y1="400" x2="470" y2="660"/>
      <line x1="487" y1="132" x2="486" y2="632"/>
    </g>

    <!-- hachures du triangle rabattu -->
    <g stroke-width="0.9">
      <line x1="308" y1="706" x2="314" y2="700"/>
      <line x1="307" y1="716" x2="318" y2="704"/>
      <line x1="306" y1="726" x2="322" y2="710"/>
      <line x1="304" y1="737" x2="326" y2="714"/>
      <line x1="302" y1="748" x2="330" y2="720"/>
      <line x1="301" y1="758" x2="334" y2="725"/>
      <line x1="300" y1="768" x2="338" y2="730"/>
      <line x1="298" y1="779" x2="342" y2="735"/>
      <line x1="296" y1="790" x2="346" y2="740"/>
      <line x1="295" y1="800" x2="350" y2="745"/>
      <line x1="293" y1="811" x2="354" y2="750"/>
      <line x1="292" y1="822" x2="358" y2="756"/>
      <line x1="290" y1="832" x2="362" y2="760"/>
      <line x1="288" y1="842" x2="366" y2="766"/>
      <line x1="287" y1="853" x2="370" y2="770"/>
      <line x1="286" y1="864" x2="374" y2="776"/>
      <line x1="284" y1="874" x2="377" y2="781"/>
      <line x1="282" y1="884" x2="381" y2="786"/>
      <line x1="281" y1="895" x2="385" y2="791"/>
      <line x1="280" y1="906" x2="389" y2="796"/>
    </g>
    <path d="M310 693 L394 802 L279 908" stroke-width="1.2"/>

    <!-- petits reperes de points -->
    <g stroke-width="1.4">
      <line x1="474" y1="712" x2="474" y2="730"/>
      <line x1="474" y1="760" x2="474" y2="778"/>
      <line x1="393" y1="758" x2="393" y2="776"/>
      <line x1="424" y1="836" x2="424" y2="854"/>
    </g>
  </g>

  <g font-family="Georgia, serif" font-size="15" fill="#111">
    <text x="30" y="74" font-size="22">E 91</text>
    <text x="638" y="30" font-size="17">71</text>

    <text x="486" y="130">S<tspan dy="-5" font-size="10">V</tspan></text>
    <text x="452" y="214">P<tspan dy="-5" font-size="10">V</tspan></text>
    <text x="408" y="320">L<tspan dy="-5" font-size="10">V</tspan></text>

    <text x="195" y="390">A<tspan dy="-5" font-size="10">V</tspan></text>
    <text x="253" y="389">S<tspan dy="-5" font-size="10">V'</tspan></text>
    <text x="317" y="392">M<tspan dy="-5" font-size="10">V</tspan></text>
    <text x="392" y="394">B<tspan dy="-5" font-size="10">V</tspan></text>
    <text x="410" y="392">C<tspan dy="-5" font-size="10">V</tspan></text>
    <text x="426" y="396">N<tspan dy="-5" font-size="10">V</tspan></text>
    <text x="467" y="392">K<tspan dy="-5" font-size="10">V</tspan></text>
    <text x="527" y="400">ch<tspan dy="-5" font-size="10">V</tspan></text>
    <text x="597" y="397">π<tspan dy="-5" font-size="10">V</tspan></text>
    <text x="621" y="402">L<tspan dy="-5" font-size="10">V</tspan></text>

    <text x="620" y="178">m<tspan dy="-5" font-size="10">V</tspan></text>
    <text x="644" y="366">m<tspan dy="-5" font-size="10">V</tspan></text>

    <text x="42" y="400">V</text>
    <text x="38" y="422">H</text>

    <text x="190" y="464">A<tspan dy="-5" font-size="10">H</tspan></text>
    <text x="500" y="642">S<tspan dy="-5" font-size="10">H</tspan></text>
    <text x="316" y="692">M<tspan dy="-5" font-size="10">H</tspan></text>
    <text x="256" y="664">L<tspan dy="-5" font-size="10">V</tspan></text>

    <text x="388" y="640">B<tspan dy="-5" font-size="10">H</tspan></text>
    <text x="405" y="634">A<tspan dy="-5" font-size="10">V'</tspan></text>
    <text x="424" y="626">B<tspan dy="-5" font-size="10">V'</tspan></text>

    <text x="479" y="728">P<tspan dy="-5" font-size="10">H</tspan></text>
    <text x="479" y="775">K<tspan dy="-5" font-size="10">H</tspan></text>
    <text x="396" y="773">N<tspan dy="-5" font-size="10">H</tspan></text>
    <text x="268" y="775">C<tspan dy="-5" font-size="10">V'</tspan></text>
    <text x="420" y="851">L<tspan dy="-5" font-size="10">H</tspan></text>
    <text x="367" y="902">C<tspan dy="-5" font-size="10">H</tspan></text>
    <text x="263" y="944">P<tspan dy="-5" font-size="10">H</tspan><tspan dy="20" font-size="10" x="272">R</tspan></text>

    <text x="660" y="800">m<tspan dy="-5" font-size="10">H</tspan></text>
    <text x="590" y="1005">ch<tspan dy="-5" font-size="10">H</tspan></text>
    <text x="604" y="1038">ι<tspan dy="-5" font-size="10">H</tspan></text>
    <text x="658" y="1053">m<tspan dy="-5" font-size="10">H</tspan></text>

    <text x="136" y="960">α<tspan dy="-5" font-size="10">V</tspan></text>
    <text x="163" y="955">g<tspan dy="-5" font-size="10">V</tspan></text>
    <text x="178" y="980">H'</text>
    <text x="66" y="970">V</text>
    <text x="80" y="986">H</text>
  </g>
</svg>
