<svg xmlns="http://www.w3.org/2000/svg" viewBox="0 0 720 540" width="720" height="540"><rect width="720" height="540" fill="#fff"/><g transform="translate(720 540) rotate(180)">
  <rect width="720" height="540" fill="#fff"/>
  <g stroke="#111" fill="none" stroke-linecap="round" stroke-linejoin="round">
    <!-- ligne de terre -->
    <line x1="25" y1="234" x2="705" y2="216" stroke-width="1.4"/>
    <!-- droite verticale -->
    <line x1="215" y1="25" x2="223" y2="508" stroke-width="1.4"/>
    <!-- droite oblique (P^H') -->
    <line x1="290" y1="517" x2="601" y2="20" stroke-width="1.4"/>

    <!-- reperes sur la ligne de terre -->
    <g stroke-width="1.2">
      <line x1="47" y1="226" x2="47" y2="240"/>
      <line x1="139" y1="224" x2="139" y2="238"/>
      <line x1="306" y1="220" x2="306" y2="234"/>
      <line x1="422" y1="217" x2="422" y2="231"/>
      <line x1="581" y1="213" x2="581" y2="227"/>
    </g>

    <!-- lignes de rappel -->
    <g stroke-width="1.2" stroke-dasharray="9 6">
      <line x1="570" y1="80" x2="579" y2="222"/>
      <line x1="418" y1="228" x2="414" y2="314"/>
    </g>
    <path d="M566 155 L580 155 M573 148 L573 162" stroke-width="1"/>
  </g>

  <g font-family="Georgia, serif" font-size="15" fill="#111" text-anchor="middle">
    <text x="66" y="106" transform="rotate(180 66 106)">( b )</text>

    <text x="62" y="263" transform="rotate(180 62 263)">M<tspan dy="-5" font-size="10">H</tspan></text>
    <text x="233" y="259" transform="rotate(180 233 259)">A<tspan dy="-5" font-size="10">H</tspan></text>
    <text x="310" y="255" transform="rotate(180 310 255)">B<tspan dy="-5" font-size="10">H</tspan></text>
    <text x="426" y="251" transform="rotate(180 426 251)">B<tspan dy="-5" font-size="10">V</tspan></text>
    <text x="477" y="247" transform="rotate(180 477 247)">A<tspan dy="-5" font-size="10">V</tspan></text>
    <text x="483" y="271" transform="rotate(180 483 271)">A<tspan dy="-5" font-size="10">H'</tspan></text>
    <text x="434" y="330" transform="rotate(180 434 330)">B<tspan dy="-5" font-size="10">H'</tspan></text>
    <text x="589" y="239" transform="rotate(180 589 239)">M<tspan dy="-5" font-size="10">V</tspan></text>
    <text x="593" y="60" transform="rotate(180 593 60)">M<tspan dy="-5" font-size="10">H</tspan></text>

    <text x="652" y="211" transform="rotate(180 652 211)">H'</text>
    <text x="666" y="236" transform="rotate(180 666 236)">LT'V</text>

    <text x="330" y="486" transform="rotate(180 330 486)">P<tspan dy="-5" font-size="10">H'</tspan></text>
    <text x="205" y="447" transform="rotate(180 205 447)">H</text>
    <text x="235" y="442" transform="rotate(180 235 442)">V</text>
    <text x="235" y="478" transform="rotate(180 235 478)">LT</text>
  </g>
</g></svg>