<svg xmlns="http://www.w3.org/2000/svg" viewBox="0 0 490 720" width="490" height="720"><rect width="490" height="720" fill="#fff"/><g transform="translate(0 720) rotate(-90)">
  <rect width="720" height="490" fill="#fff"/>
  <g stroke="#111" fill="none" stroke-linecap="round" stroke-linejoin="round">

    <!-- cadre de l'epure -->
    <path d="M14 22 Q 360 6 706 20 L 712 468 Q 360 484 12 466 Z" stroke-width="1.2"/>

    <!-- reseau de droites minces -->
    <g stroke-width="1">
      <line x1="10" y1="203" x2="711" y2="251"/>
      <line x1="10" y1="366" x2="710" y2="314"/>
      <line x1="425" y1="37" x2="700" y2="452"/>
      <line x1="300" y1="145" x2="700" y2="452"/>
      <line x1="10" y1="206" x2="405" y2="14"/>
      <line x1="135" y1="476" x2="326" y2="20"/>
      <line x1="36" y1="470" x2="350" y2="96"/>
      <line x1="47" y1="436" x2="700" y2="10"/>
      <line x1="143" y1="470" x2="710" y2="252"/>
      <line x1="268" y1="20" x2="654" y2="470"/>
      <line x1="151" y1="20" x2="700" y2="474"/>
      <line x1="300" y1="297" x2="667" y2="10"/>
      <line x1="135" y1="378" x2="410" y2="10"/>
      <line x1="10" y1="106" x2="520" y2="470"/>
      <line x1="9" y1="97" x2="479" y2="470"/>
      <line x1="304" y1="20" x2="304" y2="470"/>
      <line x1="497" y1="20" x2="490" y2="470"/>
    </g>

    <!-- fleche de ch^H -->
    <path d="M62 340 L66 366 L60 358" stroke-width="1"/>

    <!-- ===== traits forts ===== -->
    <path d="M305 65 L305 147" stroke-width="2.4" stroke-dasharray="16 8"/>
    <path d="M305 147 L135 360 L522 322 L497 143" stroke-width="2.4"/>
    <path d="M305 65 L497 143" stroke-width="2.4"/>
    <path d="M135 360 L710 320" stroke-width="2.4"/>
    <path d="M497 143 L497 322" stroke-width="2.4" stroke-dasharray="16 8"/>

    <!-- correspondances en trait interrompu -->
    <g stroke-width="1.3" stroke-dasharray="12 7">
      <line x1="312" y1="146" x2="492" y2="142"/>
      <line x1="205" y1="252" x2="500" y2="238"/>
      <line x1="230" y1="305" x2="516" y2="318"/>
      <line x1="140" y1="352" x2="512" y2="337"/>
    </g>
  </g>

  <g font-family="Georgia, serif" font-size="13" fill="#111">
    <text x="676" y="32" font-size="17" transform="rotate(90 676 32)">E 92</text>

    <text x="170" y="36" transform="rotate(90 170 36)">b<tspan dy="-4" font-size="9">H</tspan></text>
    <text x="305" y="28" transform="rotate(90 305 28)">C<tspan dy="-4" font-size="9">H</tspan></text>
    <text x="278" y="42" transform="rotate(90 278 42)">C<tspan dy="-4" font-size="9">H</tspan><tspan dy="8" font-size="9">R</tspan></text>
    <text x="396" y="30" transform="rotate(90 396 30)">x<tspan dy="-4" font-size="9">HV</tspan></text>
    <text x="487" y="34" transform="rotate(90 487 34)">b<tspan dy="-4" font-size="9">V</tspan></text>
    <text x="638" y="40" transform="rotate(90 638 40)">c<tspan dy="-4" font-size="9">V</tspan></text>

    <text x="249" y="110" transform="rotate(90 249 110)">O'</text>
    <text x="87" y="170" transform="rotate(90 87 170)">K'</text>
    <text x="288" y="143" transform="rotate(90 288 143)">O<tspan dy="-4" font-size="9">H</tspan></text>
    <text x="502" y="137" transform="rotate(90 502 137)">O<tspan dy="-4" font-size="9">V</tspan></text>

    <text x="199" y="243" transform="rotate(90 199 243)">K<tspan dy="-4" font-size="9">H</tspan></text>
    <text x="552" y="236" transform="rotate(90 552 236)">K<tspan dy="-4" font-size="9">V</tspan></text>
    <text x="309" y="230" transform="rotate(90 309 230)">M<tspan dy="-4" font-size="9">H</tspan></text>
    <text x="367" y="230" transform="rotate(90 367 230)">M<tspan dy="-4" font-size="9">V</tspan></text>
    <text x="402" y="233" transform="rotate(90 402 233)">L<tspan dy="-4" font-size="9">H</tspan></text>
    <text x="496" y="226" transform="rotate(90 496 226)">L<tspan dy="-4" font-size="9">V</tspan></text>

    <text x="306" y="290" transform="rotate(90 306 290)">C<tspan dy="-4" font-size="9">H</tspan></text>
    <text x="244" y="308" transform="rotate(90 244 308)">C<tspan dy="-4" font-size="9">V</tspan></text>
    <text x="328" y="326" transform="rotate(90 328 326)">P<tspan dy="-4" font-size="9">HV</tspan></text>

    <text x="529" y="310" transform="rotate(90 529 310)">B<tspan dy="-4" font-size="9">H</tspan></text>
    <text x="495" y="329" transform="rotate(90 495 329)">B<tspan dy="-4" font-size="9">V</tspan></text>
    <text x="495" y="345" transform="rotate(90 495 345)">ch<tspan dy="-4" font-size="9">V</tspan></text>

    <text x="629" y="333" transform="rotate(90 629 333)">A<tspan dy="-4" font-size="9">V</tspan></text>
    <text x="644" y="336" transform="rotate(90 644 336)">R<tspan dy="-4" font-size="9">V</tspan></text>
    <text x="671" y="340" transform="rotate(90 671 340)">ch<tspan dy="-4" font-size="9">V</tspan></text>

    <text x="132" y="360" transform="rotate(90 132 360)">A<tspan dy="-4" font-size="9">H</tspan></text>
    <text x="117" y="450" transform="rotate(90 117 450)">A<tspan dy="-4" font-size="9">H</tspan><tspan dy="8" font-size="9">R</tspan></text>
    <text x="34" y="350" transform="rotate(90 34 350)">ch<tspan dy="-4" font-size="9">H</tspan></text>
    <text x="487" y="433" transform="rotate(90 487 433)">π<tspan dy="-4" font-size="9">V</tspan></text>
  </g>
</g></svg>