<svg xmlns="http://www.w3.org/2000/svg" viewBox="0 0 430 720" width="430" height="720"><rect width="430" height="720" fill="#fff"/><g transform="translate(0 720) rotate(-90)">
  <rect width="720" height="430" fill="#fff"/>
  <!-- NOTE: the plate is printed sideways in the scan; all lettering reads rotated 90 deg CW,
       reproduced here with rotate(90) transforms so the drawing matches the source crop. -->
  <g stroke="#111" fill="none" stroke-linecap="round" stroke-linejoin="round">
    <!-- plate frame -->
    <path d="M10 8 L706 6 L710 421 L14 425 Z" stroke-width="1.2"/>

    <!-- reference lines / droites reperes (horizontal in the plate = vertical here) -->
    <line x1="577" y1="14" x2="571" y2="419" stroke-width="1"/>    <!-- n^V -->
    <line x1="545" y1="14" x2="539" y2="419" stroke-width="1"/>    <!-- m^V -->
    <line x1="455" y1="15" x2="454" y2="419" stroke-width="1.1"/>  <!-- pi^V ch^V -->
    <line x1="429" y1="14" x2="591" y2="419" stroke-width="1"/>    <!-- f^V -->
    <line x1="327" y1="14" x2="169" y2="419" stroke-width="1"/>    <!-- ch^H -->
    <line x1="288" y1="16" x2="299" y2="419" stroke-width="1"/>    <!-- f^H -->
    <line x1="238" y1="14" x2="247" y2="419" stroke-width="1"/>    <!-- n^H -->
    <line x1="204" y1="14" x2="213" y2="419" stroke-width="1"/>    <!-- m^H -->
    <line x1="562" y1="14" x2="707" y2="331" stroke-width="1"/>    <!-- oblique through S1 -->

    <!-- the two long lines carrying M/N and A/C (rappels drawn solid on the plate) -->
    <line x1="137" y1="320" x2="640" y2="319" stroke-width="1"/>
    <line x1="141" y1="354" x2="640" y2="351" stroke-width="1"/>

    <!-- lignes de rappel -->
    <g stroke-width="0.9" stroke-dasharray="5 4">
      <line x1="290" y1="115" x2="460" y2="113"/>   <!-- B -->
      <line x1="203" y1="168" x2="549" y2="166"/>   <!-- L -->
      <line x1="123" y1="218" x2="644" y2="214"/>   <!-- S -->
      <line x1="147" y1="240" x2="628" y2="235"/>   <!-- K -->
      <line x1="256" y1="280" x2="498" y2="273"/>   <!-- H -->
    </g>

    <!-- ===== projection verticale ===== -->
    <path d="M460 113 L549 166 L644 214 L639 319 L635 351 L418 351 Z" stroke-width="2.2"/>
    <path d="M644 214 L475 316" stroke-width="2.2"/>
    <path d="M639 319 L475 316" stroke-width="2.2"/>
    <path d="M475 316 L418 351" stroke-width="2.2"/>
    <path d="M549 166 L418 351" stroke-width="2.2"/>
    <path d="M460 113 L635 351" stroke-width="1.8" stroke-dasharray="9 5"/>
    <path d="M549 166 L635 351" stroke-width="1.8" stroke-dasharray="9 5"/>

    <!-- ===== projection horizontale ===== -->
    <path d="M290 115 L203 168 L123 218 L137 320 L141 355 L368 357 Z" stroke-width="2.2"/>
    <path d="M290 115 L312 324" stroke-width="2.2"/>
    <path d="M312 324 L137 320" stroke-width="2.2"/>
    <path d="M123 218 L312 324" stroke-width="2.2"/>
    <path d="M312 324 L368 357" stroke-width="2.2"/>
    <path d="M290 115 L141 355" stroke-width="1.8" stroke-dasharray="9 5"/>
    <path d="M203 168 L141 355" stroke-width="1.8" stroke-dasharray="9 5"/>

    <!-- arrow beside ch^H -->
    <line x1="316" y1="51" x2="336" y2="51" stroke-width="1"/>
    <path d="M329 46 L337 51 L329 56" stroke-width="1"/>
  </g>

  <g font-family="Georgia, serif" font-size="13" fill="#111">
    <text x="690" y="41" font-size="17" transform="rotate(90 690 41)">E 95</text>

    <text x="589" y="27" transform="rotate(90 589 27)">n<tspan dy="-5" font-size="10">V</tspan></text>
    <text x="556" y="101" transform="rotate(90 556 101)">m<tspan dy="-5" font-size="10">V</tspan></text>
    <text x="465" y="22" transform="rotate(90 465 22)">π<tspan dy="-5" font-size="10">V</tspan><tspan dy="5"> ch</tspan><tspan dy="-5" font-size="10">V</tspan></text>
    <text x="588" y="386" transform="rotate(90 588 386)">f<tspan dy="-5" font-size="10">V</tspan></text>
    <text x="332" y="28" transform="rotate(90 332 28)">Ch<tspan dy="-5" font-size="10">H</tspan></text>
    <text x="300" y="401" transform="rotate(90 300 401)">f<tspan dy="-5" font-size="10">H</tspan></text>
    <text x="243" y="31" transform="rotate(90 243 31)">n<tspan dy="-5" font-size="10">H</tspan></text>
    <text x="211" y="48" transform="rotate(90 211 48)">m<tspan dy="-5" font-size="10">H</tspan></text>

    <text x="654" y="218" transform="rotate(90 654 218)">S<tspan dy="-5" font-size="10">V</tspan></text>
    <text x="647" y="315" transform="rotate(90 647 315)">M<tspan dy="-5" font-size="10">V</tspan></text>
    <text x="642" y="357" transform="rotate(90 642 357)">A<tspan dy="-5" font-size="10">V</tspan></text>
    <text x="547" y="148" transform="rotate(90 547 148)">L<tspan dy="-5" font-size="10">V</tspan></text>
    <text x="468" y="105" transform="rotate(90 468 105)">B<tspan dy="-5" font-size="10">V</tspan></text>
    <text x="471" y="325" transform="rotate(90 471 325)">N<tspan dy="-5" font-size="10">V</tspan></text>
    <text x="415" y="358" transform="rotate(90 415 358)">C<tspan dy="-5" font-size="10">V</tspan></text>
    <text x="500" y="286" transform="rotate(90 500 286)">H<tspan dy="-5" font-size="10">V</tspan></text>
    <text x="631" y="233" transform="rotate(90 631 233)">K<tspan dy="-5" font-size="10">V</tspan></text>
    <text x="578" y="144" transform="rotate(90 578 144)">K'</text>
    <text x="606" y="87" transform="rotate(90 606 87)">S<tspan dy="4" font-size="10">1</tspan></text>
    <text x="680" y="334" transform="rotate(90 680 334)">b<tspan dy="-5" font-size="10">V</tspan></text>
    <text x="462" y="362" transform="rotate(90 462 362)">X<tspan dy="-5" font-size="10">V</tspan></text>
    <text x="464" y="196" transform="rotate(90 464 196)">X'</text>

    <text x="295" y="101" transform="rotate(90 295 101)">B<tspan dy="-5" font-size="10">H</tspan></text>
    <text x="371" y="369" transform="rotate(90 371 369)">A<tspan dy="-5" font-size="10">H</tspan></text>
    <text x="307" y="333" transform="rotate(90 307 333)">M<tspan dy="-5" font-size="10">H</tspan></text>
    <text x="206" y="150" transform="rotate(90 206 150)">L<tspan dy="-5" font-size="10">H</tspan></text>
    <text x="116" y="220" transform="rotate(90 116 220)">S<tspan dy="-5" font-size="10">H</tspan></text>
    <text x="133" y="321" transform="rotate(90 133 321)">N<tspan dy="-5" font-size="10">H</tspan></text>
    <text x="140" y="362" transform="rotate(90 140 362)">C<tspan dy="-5" font-size="10">H</tspan></text>
    <text x="147" y="242" transform="rotate(90 147 242)">K<tspan dy="-5" font-size="10">H</tspan></text>
    <text x="256" y="282" transform="rotate(90 256 282)">H<tspan dy="-5" font-size="10">H</tspan></text>
    <text x="278" y="295" transform="rotate(90 278 295)">H<tspan dy="-5" font-size="10">H</tspan><tspan dy="9" font-size="10">R</tspan></text>
    <text x="186" y="365" transform="rotate(90 186 365)">X<tspan dy="-5" font-size="10">H</tspan></text>
    <text x="105" y="347" transform="rotate(90 105 347)">C<tspan dy="-5" font-size="10">H</tspan><tspan dy="9" font-size="10">R</tspan></text>
    <text x="437" y="388" transform="rotate(90 437 388)">A<tspan dy="-5" font-size="10">H</tspan><tspan dy="9" font-size="10">R</tspan></text>
    <text x="194" y="408" transform="rotate(90 194 408)">A<tspan dy="4" font-size="10">1</tspan></text>
    <text x="419" y="131" transform="rotate(90 419 131)">C<tspan dy="4" font-size="10">1</tspan></text>
    <text x="53" y="379" transform="rotate(90 53 379)">a<tspan dy="-5" font-size="10">H</tspan></text>
  </g>
</g></svg>