<svg xmlns="http://www.w3.org/2000/svg" viewBox="0 0 480 720" width="480" height="720"><rect width="480" height="720" fill="#fff"/><g transform="translate(0 720) rotate(-90)">
  <rect width="720" height="480" fill="#fff"/>
  <g stroke="#111" fill="none" stroke-linecap="round" stroke-linejoin="round">

    <!-- ===== faisceau de droites (verticales de l'epure) ===== -->
    <line x1="185" y1="10" x2="198" y2="474" stroke-width="0.9"/>
    <line x1="253" y1="10" x2="256" y2="474" stroke-width="0.9"/>
    <line x1="292" y1="10" x2="296" y2="474" stroke-width="0.9"/>
    <line x1="507" y1="10" x2="484" y2="474" stroke-width="0.9"/>
    <line x1="541" y1="10" x2="513" y2="474" stroke-width="0.9"/>
    <line x1="572" y1="10" x2="549" y2="474" stroke-width="0.9"/>

    <!-- ===== obliques ===== -->
    <line x1="14" y1="278" x2="706" y2="99" stroke-width="0.9"/>
    <line x1="14" y1="281" x2="706" y2="446" stroke-width="0.9"/>
    <line x1="393" y1="10" x2="652" y2="474" stroke-width="0.9"/>
    <line x1="14" y1="160" x2="560" y2="10" stroke-width="0.9"/>
    <line x1="14" y1="193" x2="338" y2="484" stroke-width="0.9"/>
    <line x1="60" y1="202" x2="358" y2="470" stroke-width="0.9"/>
    <line x1="256" y1="474" x2="704" y2="224" stroke-width="0.9"/>
    <line x1="270" y1="10" x2="120" y2="474" stroke-width="0.9"/>
    <line x1="162" y1="474" x2="554" y2="10" stroke-width="0.9"/>
    <line x1="382" y1="10" x2="222" y2="474" stroke-width="0.9"/>
    <line x1="117" y1="10" x2="234" y2="474" stroke-width="0.9"/>
    <line x1="60" y1="456" x2="300" y2="215" stroke-width="0.9"/>
    <line x1="77" y1="252" x2="204" y2="326" stroke-width="0.9"/>
    <line x1="441" y1="135" x2="522" y2="10" stroke-width="0.9"/>

    <!-- ===== projection horizontale ===== -->
    <path d="M89 257 L195 319 L318 196 Z" stroke-width="2.2"/>
    <path d="M318 196 L254 258 L236 383" stroke-width="2.2"/>
    <path d="M318 196 L250 398" stroke-width="2.2"/>
    <path d="M195 319 L250 398" stroke-width="2.2"/>
    <path d="M228 223 L254 258" stroke-width="2.2"/>

    <!-- ===== projection verticale ===== -->
    <path d="M494 192 L526 251 L556 303" stroke-width="2.2"/>
    <path d="M494 192 L490 389" stroke-width="2.2"/>
    <path d="M556 303 L490 389" stroke-width="2.2"/>
    <path d="M493 242 L556 303" stroke-width="2.2"/>
    <path d="M526 251 L506 374" stroke-width="1.6" stroke-dasharray="14 6"/>

    <!-- ===== lignes de rappel (horizontales) ===== -->
    <g stroke-width="0.9" stroke-dasharray="9 6">
      <line x1="322" y1="196" x2="490" y2="192"/>
      <line x1="232" y1="223" x2="490" y2="212"/>
      <line x1="93" y1="257" x2="489" y2="243"/>
      <line x1="258" y1="258" x2="522" y2="251"/>
      <line x1="199" y1="319" x2="552" y2="304"/>
      <line x1="240" y1="383" x2="502" y2="375"/>
      <line x1="254" y1="398" x2="486" y2="390"/>
    </g>
    <!-- rappel de K en projection horizontale -->
    <line x1="228" y1="223" x2="231" y2="392" stroke-width="1" stroke-dasharray="9 6"/>
  </g>

  <g font-family="Georgia, serif" font-size="13" fill="#111">
    <text x="682" y="26" font-size="17" transform="rotate(90 682 26)">E 104</text>

    <text x="122" y="104" transform="rotate(90 122 104)">B<tspan dy="-5" font-size="10">H</tspan><tspan dy="9" font-size="10">R</tspan></text>
    <text x="252" y="106" transform="rotate(90 252 106)">m<tspan dy="-5" font-size="10">H</tspan></text>
    <text x="292" y="100" transform="rotate(90 292 100)">n<tspan dy="-5" font-size="10">H</tspan></text>
    <text x="532" y="84" transform="rotate(90 532 84)">m<tspan dy="-5" font-size="10">V</tspan></text>
    <text x="564" y="82" transform="rotate(90 564 82)">n<tspan dy="-5" font-size="10">V</tspan></text>

    <text x="18" y="256" transform="rotate(90 18 256)">λ<tspan dy="-5" font-size="10">H</tspan></text>
    <text x="24" y="274" transform="rotate(90 24 274)">b<tspan dy="-5" font-size="10">H</tspan></text>

    <!-- projection horizontale -->
    <text x="76" y="264" transform="rotate(90 76 264)">O<tspan dy="-5" font-size="10">H</tspan></text>
    <text x="150" y="300" transform="rotate(90 150 300)">B<tspan dy="4" font-size="10">1</tspan></text>
    <text x="204" y="312" transform="rotate(90 204 312)">B<tspan dy="-5" font-size="10">H</tspan></text>
    <text x="172" y="384" transform="rotate(90 172 384)">B'</text>
    <text x="214" y="212" transform="rotate(90 214 212)">K<tspan dy="-5" font-size="10">H</tspan></text>
    <text x="304" y="186" transform="rotate(90 304 186)">A<tspan dy="-5" font-size="10">H</tspan></text>
    <text x="258" y="268" transform="rotate(90 258 268)">M<tspan dy="-5" font-size="10">H</tspan></text>
    <text x="262" y="324" transform="rotate(90 262 324)">O<tspan dy="-5" font-size="10">H</tspan></text>
    <text x="212" y="386" transform="rotate(90 212 386)">L<tspan dy="-5" font-size="10">H</tspan></text>
    <text x="248" y="414" transform="rotate(90 248 414)">C<tspan dy="-5" font-size="10">H</tspan></text>

    <text x="148" y="440" transform="rotate(90 148 440)">//a<tspan dy="-5" font-size="10">H</tspan></text>
    <text x="189" y="436" transform="rotate(90 189 436)">g<tspan dy="-5" font-size="10">H</tspan></text>
    <text x="219" y="436" transform="rotate(90 219 436)">a<tspan dy="-5" font-size="10">H</tspan></text>
    <text x="280" y="430" transform="rotate(90 280 430)">λ<tspan dy="-5" font-size="10">H</tspan></text>
    <text x="335" y="435" transform="rotate(90 335 435)">h<tspan dy="-5" font-size="10">H</tspan></text>
    <text x="373" y="418" transform="rotate(90 373 418)">f<tspan dy="-5" font-size="10">V</tspan></text>

    <!-- projection verticale -->
    <text x="500" y="184" transform="rotate(90 500 184)">A<tspan dy="-5" font-size="10">V</tspan></text>
    <text x="482" y="218" transform="rotate(90 482 218)">K<tspan dy="-5" font-size="10">V</tspan></text>
    <text x="476" y="250" transform="rotate(90 476 250)">O<tspan dy="-5" font-size="10">V</tspan></text>
    <text x="530" y="252" transform="rotate(90 530 252)">M<tspan dy="-5" font-size="10">V</tspan></text>
    <text x="564" y="306" transform="rotate(90 564 306)">B<tspan dy="-5" font-size="10">V</tspan></text>
    <text x="504" y="378" transform="rotate(90 504 378)">N<tspan dy="-5" font-size="10">V</tspan></text>
    <text x="472" y="380" transform="rotate(90 472 380)">L<tspan dy="-5" font-size="10">V</tspan></text>
    <text x="468" y="398" transform="rotate(90 468 398)">C<tspan dy="-5" font-size="10">V</tspan></text>

    <text x="487" y="432" transform="rotate(90 487 432)">a<tspan dy="-5" font-size="10">V</tspan></text>
    <text x="500" y="434" transform="rotate(90 500 434)">b<tspan dy="-5" font-size="10">V</tspan></text>
    <text x="513" y="432" transform="rotate(90 513 432)">π<tspan dy="-5" font-size="10">V</tspan></text>
    <text x="562" y="428" transform="rotate(90 562 428)">λ<tspan dy="-5" font-size="10">V</tspan></text>
  </g>
</g></svg>